<svg width="115" height="115" viewBox="0 0 115 115" fill="none" xmlns="http://www.w3.org/2000/svg">
<path d="M74.6376 30.5956H40.3623C34.8915 30.5956 30.4406 35.0466 30.4406 40.5174V74.7926C30.4406 80.2635 34.8915 84.7157 40.3623 84.7157H74.6376C80.1084 84.7157 84.5607 80.2647 84.5607 74.7926V40.5174C84.5607 35.0466 80.1097 30.5956 74.6376 30.5956ZM57.5 75.4717C47.6768 75.4717 39.6846 67.4794 39.6846 57.655C39.6846 47.8319 47.6768 39.8396 57.5 39.8396C67.3244 39.8396 75.3167 47.8319 75.3167 57.655C75.3167 67.4781 67.3231 75.4717 57.5 75.4717ZM75.8894 43.5231C73.564 43.5231 71.6729 41.632 71.6729 39.3079C71.6729 36.9838 73.564 35.0927 75.8894 35.0927C78.2135 35.0927 80.1046 36.9838 80.1046 39.3079C80.1046 41.632 78.2135 43.5231 75.8894 43.5231Z" fill="black"/>
<path d="M57.5 47.368C51.8293 47.368 47.2118 51.983 47.2118 57.6537C47.2118 63.3269 51.8293 67.9432 57.5 67.9432C63.1733 67.9432 67.7869 63.3269 67.7869 57.6537C67.7869 51.9843 63.172 47.368 57.5 47.368Z" fill="black"/>
<path d="M57.5 0C25.7449 0 0 25.7449 0 57.5C0 89.2551 25.7449 115 57.5 115C89.2551 115 115 89.2551 115 57.5C115 25.7449 89.2551 0 57.5 0ZM92.0879 74.7927C92.0879 84.4159 84.2609 92.2429 74.6376 92.2429H40.3624C30.7404 92.2429 22.9121 84.4159 22.9121 74.7927V40.5174C22.9121 30.8954 30.7404 23.0671 40.3624 23.0671H74.6376C84.2609 23.0671 92.0879 30.8954 92.0879 40.5174V74.7927Z" fill="black"/>
</svg>
