<svg width="115" height="115" viewBox="0 0 115 115" fill="none" xmlns="http://www.w3.org/2000/svg">
<path d="M57.5 115C89.2564 115 115 89.2564 115 57.5C115 25.7436 89.2564 0 57.5 0C25.7436 0 0 25.7436 0 57.5C0 89.2564 25.7436 115 57.5 115Z" fill="black"/>
<path d="M92.7207 41.3237C90.2567 42.4163 87.606 43.1553 84.8262 43.4854C87.6645 41.7849 89.8426 39.0943 90.8706 35.883C88.2149 37.4584 85.2721 38.6013 82.1428 39.2173C79.6357 36.5472 76.0636 34.8785 72.1081 34.8785C64.5191 34.8785 58.364 41.0336 58.364 48.6227C58.364 49.6999 58.486 50.7485 58.7218 51.755C47.2992 51.1821 37.1713 45.7107 30.392 37.3928C29.2092 39.4223 28.5306 41.7849 28.5306 44.3033C28.5306 49.0706 30.9588 53.2792 34.6447 55.7433C32.3928 55.6726 30.2721 55.0545 28.4199 54.0223C28.4189 54.0807 28.4189 54.1392 28.4189 54.1966C28.4189 60.8559 33.1585 66.4104 39.4447 67.6721C38.2926 67.9878 37.076 68.1549 35.8245 68.1549C34.9368 68.1549 34.0768 68.0698 33.2384 67.9099C34.987 73.369 40.0618 77.3429 46.0775 77.4547C41.3727 81.1416 35.4473 83.3381 29.0062 83.3381C27.8992 83.3381 26.8025 83.2735 25.7293 83.1454C31.8085 87.0465 39.0347 89.321 46.796 89.321C72.0764 89.321 85.9015 68.3784 85.9015 50.2145C85.9015 49.619 85.8881 49.0255 85.8615 48.4371C88.549 46.4999 90.8788 44.0799 92.7207 41.3237Z" fill="white"/>
</svg>
