<svg width="115" height="115" viewBox="0 0 115 115" fill="none" xmlns="http://www.w3.org/2000/svg">
<path d="M47.0223 70.1023C55.6506 65.6282 64.2035 61.1952 72.8353 56.7188C64.1776 52.2011 55.627 47.7423 47.0223 43.2517C47.0223 52.2329 47.0223 61.1223 47.0223 70.1023Z" fill="black"/>
<path d="M57.5 0C25.7447 0 0 25.7435 0 57.5C0 89.2565 25.7447 115 57.5 115C89.2553 115 115 89.2565 115 57.5C115 25.7435 89.2553 0 57.5 0ZM96.6777 76.6929C95.6824 81.0106 92.1506 84.1953 87.9 84.6694C77.8329 85.7953 67.6447 85.8012 57.4977 85.7953C47.3506 85.8012 37.16 85.7953 27.0906 84.6694C22.84 84.1953 19.3106 81.0106 18.3176 76.6929C16.9024 70.5424 16.9024 63.8306 16.9024 57.5C16.9024 51.1694 16.9188 44.4553 18.3341 38.3071C19.3271 33.9894 22.8565 30.8035 27.1071 30.3282C37.1765 29.2035 47.3671 29.1976 57.5141 29.2035C67.6588 29.1976 77.8494 29.2035 87.9153 30.3282C92.1682 30.8035 95.7 33.9882 96.6929 38.3071C98.1082 44.4565 98.0965 51.1694 98.0965 57.5C98.0965 63.8306 98.0929 70.5435 96.6777 76.6929Z" fill="black"/>
</svg>
